<svg width="256" height="256" viewBox="0 0 256 256" fill="none" xmlns="http://www.w3.org/2000/svg">
<rect x="23" y="80" width="221" height="129" fill="white" stroke="black" stroke-width="12"/>
<rect x="11" y="58" width="215" height="129" fill="white" stroke="black" stroke-width="12"/>
<path d="M45.1481 170V80.6H76.5881C96.1481 80.6 112.348 87.68 112.348 109.76C112.348 131 96.0281 140.36 77.0681 140.36H66.6281V170H45.1481ZM66.6281 123.44H75.9881C86.4281 123.44 91.4681 118.52 91.4681 109.76C91.4681 100.76 85.7081 97.64 75.3881 97.64H66.6281V123.44ZM127.531 170V80.6H160.291C179.371 80.6 195.211 87.2 195.211 108.8C195.211 129.8 179.371 138.56 160.291 138.56H149.011V170H127.531ZM149.011 121.64H158.611C168.811 121.64 174.331 117.2 174.331 108.8C174.331 100.4 168.811 97.64 158.611 97.64H149.011V121.64ZM175.771 170L156.451 133.04L170.971 119L199.771 170H175.771Z" fill="black"/>
</svg>
